PathFileType	4	(X/Y/Z)	C:/Users/opensim2020/Desktop/walking_exp_matlab/subject03_walking09_straight_03.trc																																																																																																																																											
DataRate	CameraRate	NumFrames	NumMarkers	Units	OrigDataRate	OrigDataStartFrame	OrigNumFrames																																																																																																																																							
100	100	8	47	mm	100	2939	383																																																																																																																																							
Frame#	Time	LFHD			RFHD			LBHD			RBHD			C7			T10			CLAV			STRN			RBAK			LSHO			LUPA			LELB			LFRM			LWRA			LWRB			LFIN			RSHO			RUPA			RELB			RFRM			RWRA			RWRB			RFIN			LASI			RASI			LPSI			RPSI			LTHI			LKNE			LTIB			LANK			LHEE			LTOE			RTHI			RKNE			RTIB			RANK			RHEE			RTOE			*39			*40			*41			*42			*43			*44			*45			*46		
		X1	Y1	Z1	X2	Y2	Z2	X3	Y3	Z3	X4	Y4	Z4	X5	Y5	Z5	X6	Y6	Z6	X7	Y7	Z7	X8	Y8	Z8	X9	Y9	Z9	X10	Y10	Z10	X11	Y11	Z11	X12	Y12	Z12	X13	Y13	Z13	X14	Y14	Z14	X15	Y15	Z15	X16	Y16	Z16	X17	Y17	Z17	X18	Y18	Z18	X19	Y19	Z19	X20	Y20	Z20	X21	Y21	Z21	X22	Y22	Z22	X23	Y23	Z23	X24	Y24	Z24	X25	Y25	Z25	X26	Y26	Z26	X27	Y27	Z27	X28	Y28	Z28	X29	Y29	Z29	X30	Y30	Z30	X31	Y31	Z31	X32	Y32	Z32	X33	Y33	Z33	X34	Y34	Z34	X35	Y35	Z35	X36	Y36	Z36	X37	Y37	Z37	X38	Y38	Z38	X39	Y39	Z39	X40	Y40	Z40	X41	Y41	Z41	X42	Y42	Z42	X43	Y43	Z43	X44	Y44	Z44	X45	Y45	Z45	X46	Y46	Z46	X47	Y47	Z47
																																																																																																																																														
144	1.43	21.42159	1623.17651	-1045.31152	3.9442	1623.49011	-912.83496	-100.26646	1566.16028	-1058.00854	-112.45625	1566.46033	-927.57892	-130.45685	1415.39319	-994.83813	-173.67313	1104.42944	-990.2807	-11.07812	1335.14331	-996.22461	25.12607	1168.20947	-999.92401	-185.33302	1246.39502	-890.64661	-59.67389	1370.93958	-1151.72498	-86.79878	1173.44189	-1220.4104	-88.80692	1050.84412	-1234.0033	-59.05597	924.28876	-1237.58411	-28.95808	808.2309	-1210.43628	-61.82	811.18182	-1255.70593	-39.88184	729.30719	-1247.93579	-47.28236	1363.7561	-835.79102	-16.3179	1147.57544	-756.30652	21.16817	1041.37	-742.07739	64.90093	911.54755	-740.20099	107.79739	822.30725	-778.38275	85.45457	814.29297	-729.63232	121.93596	749.93622	-740.3042	-5.73812	938.5495	-1106.89539	-8.91294	936.98645	-869.60706	-169.85498	957.38068	-1062.60217	-168.98436	970.52454	-912.51508	20.90067	645.45886	-1157.44373	86.09496	480.01703	-1122.30103	32.48546	289.91879	-1125.75903	3.32924	81.64019	-1089.56836	-41.15652	47.39984	-1052.09399	144.41612	39.76946	-1061.99097	-84.82544	643.53662	-838.47443	-89.82749	463.85455	-875.60236	-156.45998	283.68286	-876.12292	-208.5916	74.21914	-929.69623	-254.02164	45.91808	-981.20367	-68.64748	31.03453	-940.64355	-73.00211	1671.23145	-1005.45233	NaN	NaN	NaN	NaN	NaN	NaN	NaN	NaN	NaN	NaN	NaN	NaN	NaN	NaN	NaN	NaN	NaN	NaN	NaN	NaN	NaN
145	1.44	28.92425	1622.54883	-1045.45801	11.44105	1622.69067	-913.05298	-92.70605	1565.43176	-1058.26294	-104.88209	1565.60596	-927.85419	-122.82919	1414.78821	-994.97418	-166.4969	1103.90991	-990.62103	-3.49467	1334.44556	-996.62201	32.38918	1167.43347	-1000.17627	-177.79886	1246.07544	-890.55426	-52.68662	1370.22949	-1152.01318	-81.00466	1172.76563	-1220.45227	-83.3329	1050.17883	-1233.81592	-53.60712	923.60712	-1237.4436	-23.2951	807.62842	-1210.24756	-56.46933	810.47186	-1255.30225	-34.33646	728.72809	-1247.68018	-39.36893	1363.2959	-836.15039	-7.84464	1147.3999	-756.21985	30.1721	1041.47717	-741.95001	75.31902	912.15662	-740.56873	119.1366	823.59839	-779.06897	96.93044	815.03784	-730.34644	134.30042	751.31915	-741.28235	1.81965	937.76929	-1106.74622	-2.68188	936.35529	-869.15369	-162.39235	956.5307	-1062.94727	-162.13869	969.86633	-912.87659	26.87241	644.0108	-1157.28015	92.81198	479.013	-1120.88904	47.70135	287.30435	-1124.75916	29.31633	77.71795	-1088.78601	-13.83926	42.37808	-1051.11865	172.21655	40.35559	-1060.48987	-80.1184	643.26129	-838.42096	-86.75174	463.66281	-875.42273	-154.98816	283.9631	-876.13159	-208.39856	74.80212	-929.8642	-253.66026	46.60714	-981.46851	-68.70325	30.94119	-940.73663	-65.51991	1670.52075	-1005.61798	NaN	NaN	NaN	NaN	NaN	NaN	NaN	NaN	NaN	NaN	NaN	NaN	NaN	NaN	NaN	NaN	NaN	NaN	NaN	NaN	NaN
146	1.45	36.54549	1621.88953	-1045.7522	19.02871	1621.96338	-913.31378	-85.07679	1564.72241	-1058.58313	-97.3315	1564.78882	-928.15704	-115.21041	1414.19458	-995.15399	-159.17654	1103.33667	-991.00629	4.09251	1333.72498	-997.00439	39.68011	1166.59875	-1000.47894	-170.23721	1245.72644	-890.55566	-45.58889	1369.55518	-1152.34729	-74.9113	1172.26404	-1220.89063	-77.51007	1049.4696	-1233.51184	-47.95371	922.89551	-1237.22754	-17.465	806.94934	-1210.07458	-50.90969	809.685	-1254.74585	-28.57055	728.13623	-1247.46509	-31.36131	1362.74744	-836.55573	0.59209	1147.1842	-756.46301	39.0184	1041.48547	-741.88208	85.54373	912.63953	-740.9743	130.19972	824.68976	-779.87939	108.16885	815.71948	-731.16364	146.41939	752.60321	-742.35419	9.48427	936.93231	-1106.76904	4.15434	935.78229	-869.13995	-154.85544	955.68475	-1063.42029	-155.21869	969.18243	-913.32281	32.70806	642.31946	-1157.14185	99.0234	477.3801	-1119.55884	62.58245	285.04529	-1123.75146	55.08414	74.39388	-1087.72986	13.65025	37.8756	-1050.89893	199.285	41.06499	-1059.06885	-75.29787	643.0235	-838.35504	-83.5224	463.47922	-875.25702	-153.35139	284.26572	-876.19318	-208.36591	75.37932	-930.03906	-253.7117	47.70875	-981.68237	-68.64372	30.87459	-940.65588	-57.99262	1669.74207	-1005.79651	NaN	NaN	NaN	NaN	NaN	NaN	NaN	NaN	NaN	NaN	NaN	NaN	NaN	NaN	NaN	NaN	NaN	NaN	NaN	NaN	NaN
147	1.46	44.10142	1621.18848	-1046.02795	26.62612	1621.15698	-913.59521	-77.40852	1563.94141	-1058.95032	-89.66676	1563.95435	-928.5567	-107.56706	1413.54517	-995.42249	-151.94452	1102.70813	-991.42444	11.73633	1332.98621	-997.47565	47.10286	1165.82288	-1000.75702	-162.71512	1245.35828	-890.57465	-38.36839	1368.84766	-1152.76025	-68.68941	1171.39319	-1220.64355	-71.80092	1048.76892	-1233.5188	-42.20576	922.10931	-1237.09583	-11.56694	806.2392	-1209.92346	-45.2771	808.94232	-1254.3429	-22.7781	727.44086	-1247.20276	-23.46259	1362.10938	-836.97632	8.8918	1146.84497	-756.52631	47.80972	1041.35889	-741.93457	95.4986	913.00586	-741.46674	141.10388	825.78827	-780.80969	119.20597	816.26642	-732.15198	158.22018	753.73309	-743.60638	17.1878	936.00812	-1106.73254	10.9966	935.14154	-869.07825	-147.33577	954.86334	-1063.84741	-148.23436	968.57495	-913.78955	38.47595	640.48743	-1157.1637	105.1629	476.21524	-1117.91736	76.96147	283.16946	-1122.75134	79.70125	72.25479	-1087.5896	39.56313	34.96288	-1050.41504	225.33521	42.0448	-1057.68164	-70.30833	642.78046	-838.25458	-80.03694	463.37247	-875.07068	-151.61618	284.63257	-876.18658	-208.14255	76.08598	-930.07397	-253.49991	48.65831	-981.87292	-68.56768	30.86678	-940.44836	-50.4117	1668.99951	-1006.30432	NaN	NaN	NaN	NaN	NaN	NaN	NaN	NaN	NaN	NaN	NaN	NaN	NaN	NaN	NaN	NaN	NaN	NaN	NaN	NaN	NaN
148	1.47	51.78938	1620.49121	-1046.46997	34.18699	1620.40845	-914.00861	-69.75099	1563.13184	-1059.349	-81.94343	1563.09741	-928.90674	-99.91428	1412.84961	-995.73169	-144.63324	1102.0647	-991.92023	19.45174	1332.21411	-997.90173	54.6344	1164.99438	-1001.16803	-155.09106	1244.93567	-890.71838	-30.99578	1368.0741	-1153.19446	-62.1569	1170.83655	-1221.09131	-65.60806	1048.00793	-1233.45996	-36.22099	921.37964	-1236.98535	-5.4756	805.51514	-1209.82031	-39.58732	808.16095	-1254.14063	-16.95446	726.68201	-1246.91699	-15.55189	1361.38599	-837.4837	17.20746	1146.44238	-756.75525	56.50748	1041.17346	-742.05701	105.32871	913.25031	-741.9201	151.72173	826.68439	-781.79248	129.95758	816.72559	-733.19965	169.83168	754.84906	-744.92438	24.97948	935.0069	-1106.76111	17.82002	934.48895	-869.11865	-139.71404	953.94916	-1064.41541	-141.19536	967.96063	-914.33966	44.20746	638.53705	-1157.21716	111.02284	474.61273	-1116.37683	90.81178	281.57248	-1121.76978	103.57251	70.8484	-1087.29492	64.72122	32.78622	-1050.13782	250.29597	43.94566	-1056.34656	-65.24004	642.58282	-838.17566	-76.38682	463.23575	-874.84393	-149.64102	285.01904	-876.16418	-207.58534	76.93075	-930.05414	-253.26227	49.7365	-981.9671	-68.58234	30.81139	-940.57727	-42.84027	1668.1499	-1006.6156	NaN	NaN	NaN	NaN	NaN	NaN	NaN	NaN	NaN	NaN	NaN	NaN	NaN	NaN	NaN	NaN	NaN	NaN	NaN	NaN	NaN
149	1.48	59.42147	1619.70776	-1046.87805	41.9281	1619.65674	-914.42889	-62.05531	1562.29541	-1059.74756	-74.30792	1562.26184	-929.42584	-92.13756	1412.10437	-996.15118	-137.21645	1101.36072	-992.51117	27.17517	1331.41357	-998.36346	62.14193	1164.18982	-1001.39246	-147.446	1244.4176	-890.99677	-23.54415	1367.32239	-1153.66614	-55.40345	1169.93591	-1221.25122	-59.32462	1047.21667	-1233.39587	-30.10265	920.47919	-1236.83508	0.66806	804.66113	-1209.61401	-33.66814	807.26819	-1253.73962	-10.99836	725.81934	-1246.5885	-7.52387	1360.75085	-837.98157	25.42096	1145.93884	-756.83051	65.03847	1040.87146	-742.30981	114.96273	913.3927	-742.78735	162.19769	827.46375	-782.90149	140.56848	817.01678	-734.34534	181.06778	755.69244	-746.37891	32.85221	933.98517	-1106.83484	24.77391	933.83484	-869.20667	-132.04266	953.00891	-1065.01978	-134.14626	967.28888	-914.96906	50.00784	636.51044	-1157.34595	116.89582	473.00128	-1114.96057	104.06047	280.17688	-1120.8855	126.0198	70.03514	-1087.16125	88.32171	31.53701	-1050.47156	273.7402	46.88667	-1055.21228	-60.05978	642.33813	-838.09509	-72.40172	463.05103	-874.56281	-147.50685	285.3952	-876.05359	-207.192	77.66779	-930.03528	-252.92918	50.8832	-982.09552	-68.51241	30.75719	-940.48029	-35.21352	1667.35156	-1007.11194	NaN	NaN	NaN	NaN	NaN	NaN	NaN	NaN	NaN	NaN	NaN	NaN	NaN	NaN	NaN	NaN	NaN	NaN	NaN	NaN	NaN
150	1.49	67.14268	1618.95215	-1047.31458	49.54096	1618.85327	-914.88666	-54.30991	1561.41235	-1060.31372	-66.65553	1561.38623	-929.88879	-84.31661	1411.32214	-996.58563	-129.87662	1100.72144	-993.21503	34.98436	1330.62122	-998.8313	69.78254	1163.36584	-1001.80548	-139.84901	1243.85461	-891.29999	-15.8905	1366.55029	-1154.10938	-48.51337	1169.08081	-1221.16931	-52.7645	1046.33838	-1233.40308	-23.7752	919.59528	-1236.7926	6.94253	803.76105	-1209.48962	-27.61344	806.3327	-1253.42554	-5.08637	724.8924	-1246.1438	0.33052	1359.92517	-838.47815	33.67965	1145.38293	-757.38	73.56923	1040.44055	-742.69763	124.5117	913.40692	-743.508	172.39464	828.09491	-784.1283	150.88417	817.2132	-735.62714	192.06926	756.39587	-747.99255	40.96107	932.98395	-1106.95862	31.71044	933.12256	-869.22589	-124.26977	952.03558	-1065.71289	-127.02131	966.55719	-915.70801	55.92	634.52954	-1157.45947	122.6573	471.21832	-1113.47168	116.75358	279.04715	-1119.97314	146.89375	69.81573	-1086.92578	110.34409	30.3071	-1050.58813	295.53894	50.93143	-1054.16394	-54.67999	642.07104	-837.98645	-68.26001	462.83371	-874.21497	-145.09593	285.76422	-875.92926	-206.81796	78.57655	-929.8905	-252.74815	52.12014	-981.96698	-68.51279	30.63825	-940.56592	-27.55426	1666.47021	-1007.67615	NaN	NaN	NaN	NaN	NaN	NaN	NaN	NaN	NaN	NaN	NaN	NaN	NaN	NaN	NaN	NaN	NaN	NaN	NaN	NaN	NaN
151	1.5	74.81814	1618.08923	-1047.89514	57.20806	1618.06787	-915.4646	-46.5206	1560.47021	-1060.84253	-58.82891	1560.46729	-930.43951	-76.27969	1410.37976	-996.927	-122.35733	1099.97974	-994.05585	42.78366	1329.78955	-999.33362	77.48615	1162.5011	-1002.13287	-132.20357	1243.25818	-891.75616	-8.07598	1365.6908	-1154.7417	-41.32095	1168.19348	-1221.42017	-45.94865	1045.46851	-1233.44531	-17.25739	918.63098	-1236.76062	13.31729	802.85931	-1209.35034	-21.40808	805.38226	-1253.18262	1.12791	723.8371	-1245.84619	8.2172	1359.12476	-838.98877	41.84334	1144.75012	-757.67712	81.99272	1039.96143	-743.1936	133.79486	913.31616	-744.55853	182.38	828.58069	-785.36694	160.89034	817.2644	-736.93256	202.65884	756.94397	-749.53326	49.002	931.81964	-1107.1167	38.75618	932.4483	-869.42346	-116.36707	950.91797	-1066.51953	-119.8609	965.75305	-916.57135	61.90117	632.52753	-1157.59631	128.69354	469.59848	-1112.11084	128.75249	278.11981	-1119.25427	166.11852	70.0407	-1086.60571	130.74083	29.2115	-1050.54944	315.42868	55.63682	-1053.41089	-49.19713	641.76746	-837.90204	-63.84995	462.58234	-873.91968	-142.51151	286.13434	-875.7674	-206.38054	79.31712	-929.78784	-252.38222	53.37422	-981.93463	-68.34972	30.60163	-940.28021	-19.90798	1665.59497	-1008.40656	NaN	NaN	NaN	NaN	NaN	NaN	NaN	NaN	NaN	NaN	NaN	NaN	NaN	NaN	NaN	NaN	NaN	NaN	NaN	NaN	NaN
